<svg xmlns="http://www.w3.org/2000/svg" xmlns:xlink="http://www.w3.org/1999/xlink" viewBox="0 0 552.65 441.62"><defs><style>.cls-1{isolation:isolate;}.cls-2{fill:#e8ecef;}.cls-3{fill:#0c2321;}.cls-4{fill:url(#linear-gradient);}.cls-5{opacity:0.53;}.cls-13,.cls-14,.cls-31,.cls-5{mix-blend-mode:soft-light;}.cls-6{fill:url(#linear-gradient-2);}.cls-14,.cls-7{fill:#fff;}.cls-8{fill:#d0412b;}.cls-9{fill:#601112;}.cls-10{fill:url(#linear-gradient-3);}.cls-11{fill:#49c2ff;}.cls-12{fill:url(#linear-gradient-4);}.cls-15{fill:url(#linear-gradient-5);}.cls-16{fill:url(#linear-gradient-6);}.cls-17{fill:url(#linear-gradient-7);}.cls-18{fill:#39a0d9;}.cls-19{fill:url(#linear-gradient-8);}.cls-20{fill:#002756;}.cls-21{fill:#9986ce;}.cls-22{fill:#1e0d51;}.cls-23{fill:#3c335b;}.cls-24{fill:#1c1515;}.cls-25{fill:#280d0d;}.cls-26{fill:#210f0f;}.cls-27{fill:url(#linear-gradient-9);}.cls-28{fill:url(#linear-gradient-10);}.cls-29{fill:url(#linear-gradient-11);}.cls-30{fill:url(#linear-gradient-12);}.cls-31{opacity:0.56;}.cls-32{fill:url(#linear-gradient-13);}.cls-33{fill:url(#linear-gradient-14);}.cls-34{fill:url(#linear-gradient-15);}.cls-35{fill:url(#linear-gradient-16);}.cls-36{fill:url(#linear-gradient-17);}.cls-37{fill:#a0e0ff;}.cls-38{fill:#6cceff;}.cls-39{fill:url(#linear-gradient-18);}.cls-40{fill:url(#linear-gradient-19);}.cls-41{fill:url(#linear-gradient-20);}</style><linearGradient id="linear-gradient" x1="668.46" y1="96.82" x2="707.79" y2="96.82" gradientTransform="matrix(0.99, -0.11, 0.11, 0.99, -391.44, 95.51)" gradientUnits="userSpaceOnUse"><stop offset="0.11" stop-color="#ffbd95"/><stop offset="0.63" stop-color="#ff9a6a"/><stop offset="0.99" stop-color="#f17954"/></linearGradient><linearGradient id="linear-gradient-2" x1="667.43" y1="63.04" x2="696.44" y2="63.04" xlink:href="#linear-gradient"/><linearGradient id="linear-gradient-3" x1="215.76" y1="216.15" x2="278.46" y2="223.98" gradientTransform="translate(-19.34 27.34) rotate(-5.33)" xlink:href="#linear-gradient"/><linearGradient id="linear-gradient-4" x1="230.04" y1="211.16" x2="270.4" y2="214.2" gradientTransform="translate(-19.34 27.34) rotate(-5.33)" xlink:href="#linear-gradient"/><linearGradient id="linear-gradient-5" x1="248.45" y1="147.25" x2="281.72" y2="147.25" gradientUnits="userSpaceOnUse"><stop offset="0" stop-color="#49c2ff"/><stop offset="1" stop-color="#a0e0ff"/></linearGradient><linearGradient id="linear-gradient-6" x1="260.44" y1="305.55" x2="349.57" y2="305.55" gradientUnits="userSpaceOnUse"><stop offset="0" stop-color="#185b8e"/><stop offset="1" stop-color="#002756"/></linearGradient><linearGradient id="linear-gradient-7" x1="272.04" y1="168.24" x2="345.14" y2="168.24" xlink:href="#linear-gradient-5"/><linearGradient id="linear-gradient-8" x1="336.23" y1="140.28" x2="379.75" y2="140.28" xlink:href="#linear-gradient-5"/><linearGradient id="linear-gradient-9" x1="244.52" y1="246.82" x2="241.38" y2="267.95" gradientTransform="matrix(1, 0, 0, 1, 0, 0)" xlink:href="#linear-gradient"/><linearGradient id="linear-gradient-10" x1="309.58" y1="186.25" x2="433.16" y2="186.25" gradientTransform="matrix(-1, 0, 0, 1, 693.28, 0)" xlink:href="#linear-gradient"/><linearGradient id="linear-gradient-11" x1="486.31" y1="98.31" x2="517.21" y2="98.31" gradientTransform="matrix(1, 0, 0, 1, 0, 0)" xlink:href="#linear-gradient"/><linearGradient id="linear-gradient-12" x1="478.09" y1="79.16" x2="508.44" y2="79.16" gradientTransform="translate(23.98 -66.66) rotate(7.27)" xlink:href="#linear-gradient"/><linearGradient id="linear-gradient-13" x1="462.34" y1="305.81" x2="520.25" y2="305.81" xlink:href="#linear-gradient-6"/><linearGradient id="linear-gradient-14" x1="486.7" y1="310.96" x2="542.42" y2="310.96" xlink:href="#linear-gradient-6"/><linearGradient id="linear-gradient-15" x1="426.78" y1="129.85" x2="482.92" y2="129.85" xlink:href="#linear-gradient-5"/><linearGradient id="linear-gradient-16" x1="460.68" y1="158.19" x2="541.6" y2="158.19" xlink:href="#linear-gradient-5"/><linearGradient id="linear-gradient-17" x1="416.4" y1="155.47" x2="446.12" y2="155.47" gradientTransform="matrix(1, 0, 0, 1, 0, 0)" xlink:href="#linear-gradient"/><linearGradient id="linear-gradient-18" x1="409.52" y1="142.3" x2="465.17" y2="142.3" gradientTransform="matrix(1, 0, 0, 1, 0, 0)" xlink:href="#linear-gradient"/><linearGradient id="linear-gradient-19" x1="531.61" y1="130.13" x2="570.4" y2="130.13" xlink:href="#linear-gradient-5"/><linearGradient id="linear-gradient-20" x1="118.74" y1="177.32" x2="241.66" y2="177.32" gradientTransform="matrix(-1, 0, 0, 1, 693.28, 0)" xlink:href="#linear-gradient"/></defs><g class="cls-1"><g id="Layer_1" data-name="Layer 1"><path class="cls-2" d="M495.43,467.37c42.25,9.6,85.31-.77,115.67-32.34,31.29-32.53,43.72-80.08,25.35-122.51-8.3-19.16-25-33.26-31.56-53.41C595.44,230,614,194.08,615,164c1-32.44-4.19-67.62-28.43-91.36-66-64.7-171.62-56.83-232.3,21.85-14.75,19.13-37.93,73.43-64.76,75.53-14.28,1.11-28.5-2.93-42.82-2.8-79.83.77-136.85,71.44-136.81,132.89.07,80.44,66,144.42,141.65,160.51,47.14,10,89.61-4.12,136-4,10.25,0,20.49.28,30.74.29C440.19,456.91,474.06,462.51,495.43,467.37Z" transform="translate(-99.65 -29.19)"/><path class="cls-3" d="M320.88,92.27s-.72-15.59-7.31-25.87C298.41,42.74,276.67,68,276.67,68l7.38,35.74Z" transform="translate(-99.65 -29.19)"/><path class="cls-4" d="M322.52,111.35c-.91,2.26-13.91,10.31-16.82,11.43-1.12.45-5.84,19.49-6.75,20.3-1.1,1-12-19.56-13.86-20.86s-.83-3,.34-5c.51-.86,8.37-8.43,8.69-14.34a9.76,9.76,0,0,0-.37-3.18,28.68,28.68,0,0,0-1.56-4c-.23-.54-.48-1.07-.69-1.6.62-.36,1.29-.74,2-1.12,3.79-2.07,8.65-4.38,11.95-6.34-.7.41,1.33,8.2,1.62,9.19a13.6,13.6,0,0,0,.69,1.84,14.24,14.24,0,0,0,1.36,2.63,17.45,17.45,0,0,0,2.58,3.33C314.32,106,323.31,109.33,322.52,111.35Z" transform="translate(-99.65 -29.19)"/><path class="cls-5" d="M309.12,100.37a70.41,70.41,0,0,1-15.37-.63,28.68,28.68,0,0,0-1.56-4c.41-.84.86-1.77,1.31-2.72,3.79-2.07,8.65-4.38,11.95-6.34-.7.41,1.33,8.2,1.62,9.19a13.6,13.6,0,0,0,.69,1.84A14.24,14.24,0,0,0,309.12,100.37Z" transform="translate(-99.65 -29.19)"/><path class="cls-6" d="M307.83,86.15a3.69,3.69,0,0,1-2.24,1.46c-.77,5.4-13.22,11.93-13.22,11.93l-.57-.19c-12.31-4.12-13.92-23.8-14.07-26.2a2.07,2.07,0,0,0,0-.23l10.55-8,13.82,8.79a28.38,28.38,0,0,1,3.19,3.69C307.33,80.07,308.87,84.84,307.83,86.15Z" transform="translate(-99.65 -29.19)"/><path class="cls-7" d="M289.33,93.39l6.29-3.62s0,3.59-2,4.69S289.33,93.39,289.33,93.39Z" transform="translate(-99.65 -29.19)"/><path class="cls-8" d="M289.11,81.21c-.15-.35,1-2,2.77-2.34a6.58,6.58,0,0,1,3.56.51s-3.31-.38-4.33.94C289.9,81.89,289.11,81.21,289.11,81.21Z" transform="translate(-99.65 -29.19)"/><path class="cls-8" d="M285.42,82.75a4,4,0,0,0-2.77.22,3.49,3.49,0,0,0-1.75,2.08,4.18,4.18,0,0,1,2.74-1.5C285.81,83.42,285.42,82.75,285.42,82.75Z" transform="translate(-99.65 -29.19)"/><path class="cls-9" d="M285.39,85.92c.13.8-.06,1.49-.42,1.55s-.75-.55-.88-1.35.06-1.49.42-1.55S285.26,85.12,285.39,85.92Z" transform="translate(-99.65 -29.19)"/><path class="cls-9" d="M293.76,82.39c.13.8-.06,1.5-.42,1.55s-.75-.54-.88-1.34.06-1.49.42-1.55S293.63,81.6,293.76,82.39Z" transform="translate(-99.65 -29.19)"/><path class="cls-8" d="M288.49,85.8s-.5,4.72,0,4.79a5.71,5.71,0,0,0,1.88-.56Z" transform="translate(-99.65 -29.19)"/><path class="cls-3" d="M277,84.07c2.24.76,4.12,4.07,4.17,4.13-.1-.68-.49-2-.64-2.69a27.47,27.47,0,0,0-.93-4.12l-.45-1.15c-1-2.64-2-6.35,2.94-9.95.38-.28.8-.56,1.25-.84,1.58-1,3.87-1.6,6,.77,1.73,2,4.38,5.51,6.39,7.19.43.37,3.24,3.79,3.59,4,2,.86.35-2.07,1.26-3.2s2.18-1,3.2.92.05,5.49-1.68,6.39c0,0,3.67,1.32,3.18,3.43,1.5,5.87,2.12,7.94,2.12,7.94a91.46,91.46,0,0,1,3.29-12.67c1.92-5.14,1.1-7.18-2.33-11.47a36,36,0,0,0-6.23-6.16h0a16.57,16.57,0,0,0-9.45-3.76c-6.39-.1-10.07,3-10.85,4,0,0-5.36-.22-8.69,1.57a7.89,7.89,0,0,0-4.44,8.17s0,.11,0,.16C269.1,80.18,274.79,83.32,277,84.07Z" transform="translate(-99.65 -29.19)"/><path class="cls-10" d="M266.69,213.56c-3.67,11.61-13.59,35.72-13.59,35.72s.22,1.18.46,2.87a12.45,12.45,0,0,1,.86,1.82,4.87,4.87,0,0,1,.1,2.39,11.4,11.4,0,0,1-.37,1.59c-.08.25-.17.52-.27.8a4.17,4.17,0,0,1-.32.68h0a6.66,6.66,0,0,1-.78,1.12,9.37,9.37,0,0,0,.64,2.14c.05.12.11.24.17.37a8.88,8.88,0,0,0,1.22,2,6.42,6.42,0,0,1,1.12,1.57.7.7,0,0,1-.92.89,8.28,8.28,0,0,1-3.47-3.24,10.25,10.25,0,0,1-.88-1.79l0,0c0,.49-.07,1-.1,1.46a10.82,10.82,0,0,0,.1,2.34,11.5,11.5,0,0,0,.89,3,7.7,7.7,0,0,1,.82,2.1.82.82,0,0,1-1.3.74,9,9,0,0,1-2.37-3.12,11.58,11.58,0,0,1-1.13-5.07,7.54,7.54,0,0,1-.82.2,17.09,17.09,0,0,0-.16,3,8.92,8.92,0,0,0,1.42,4.08c.37.64.77,1.27,1.15,2s-.25,1.55-1,1.29a6.93,6.93,0,0,1-1.32-.7,8,8,0,0,1-3.33-5.35,20.67,20.67,0,0,1-.16-4.49l-.38-.17a9.28,9.28,0,0,0-.17,4.19c.54,2.34,2.8,4.89,1.61,7.33a1.08,1.08,0,0,1-.24.28.69.69,0,0,1-1-.11c-1.35-2.2-3.18-5.28-3.64-7.92-.91-5.3,1.37-10,2.08-12.11a6.71,6.71,0,0,1,1.28-2.2c.13-.73.24-1.32.35-1.73.94-3.63,4.29-28.75,4.08-38.6s2.74-36.53,4.62-40c0,0-1.67-1.69,7.39-1.55,3,.05,5.59.22,7.7.43a54.8,54.8,0,0,1,6.58.94C273.14,177.13,270.33,202,266.69,213.56Z" transform="translate(-99.65 -29.19)"/><path class="cls-11" d="M288.16,421.79a5.71,5.71,0,0,1-2.09.61,40.23,40.23,0,0,1-9.16-.61,53.26,53.26,0,0,1-18.7,1.67c-3.8-.49-5.91-1.62-5.61-2.83.67-2.61,4-3.43,8.41-4.7s11.79-9.66,11.79-9.66l1,0,13.73-.53,1.52-.08h.21a1.64,1.64,0,0,1,0,.29C289.44,408,290.48,420.34,288.16,421.79Z" transform="translate(-99.65 -29.19)"/><path class="cls-12" d="M266.69,213.56c-3.67,11.61-13.59,35.72-13.59,35.72s.22,1.18.46,2.87a12.45,12.45,0,0,1,.86,1.82,4.87,4.87,0,0,1,.1,2.39c-.36,1.07-.71,2.14-1,3.07h0c.67-4.5-1.94-8.29-1.65-10.77.06-.48,11.7-36.38,12.76-47.11,1-10.06,1.06-20.94,2.31-29.69a54.8,54.8,0,0,1,6.58.94C273.14,177.13,270.33,202,266.69,213.56Z" transform="translate(-99.65 -29.19)"/><path class="cls-13" d="M273.77,406.23s0,0,0,0c-4,9-14.81,11.71-17.25,13.48-1.5,1.1-.75,2.76,1.71,3.71-3.8-.49-5.91-1.62-5.61-2.83.67-2.61,4-3.43,8.41-4.7s11.79-9.66,11.79-9.66Z" transform="translate(-99.65 -29.19)"/><path class="cls-14" d="M288.16,421.79a5.71,5.71,0,0,1-2.09.61c2.87-3,2-12.31,1.43-16.7-.19-1.43-.36-2.34-.36-2.34l1.88,2.26.23.29C289.44,408,290.48,420.34,288.16,421.79Z" transform="translate(-99.65 -29.19)"/><path class="cls-11" d="M346.47,421.22c-1.34.92-4.51,1-7.16.84-2.26-.1-4.12-.36-4.12-.36-1.8.53-3.48,1-5,1.3-.65.16-1.27.28-1.87.38l-.07,0c-1.47.27-2.81.44-4,.54-6.64.54-9.59-1.19-9.22-3,.54-2.64,3.76-5.82,8-7.59,4.46-1.86,7.73-8,7.73-8h1.95l11.66-.12,2.12-.18h0l.33,0s0,.13,0,.34C347.17,407.51,348.72,419.66,346.47,421.22Z" transform="translate(-99.65 -29.19)"/><path class="cls-13" d="M324.2,423.94c-6.64.54-9.59-1.19-9.22-3,.54-2.64,3.76-5.82,8-7.59,4.46-1.86,7.73-8,7.73-8h1.95c-1.65,3.07-5.26,8.6-11.18,11.6C314.81,420.31,319,423.73,324.2,423.94Z" transform="translate(-99.65 -29.19)"/><path class="cls-14" d="M346.47,421.22c-1.34.92-4.51,1-7.16.84,5.2-.78,6.35-1.93,6.58-3.39.3-1.85,0-9.18-.21-12.56a7.15,7.15,0,0,0-1.42-2.9l2.22,1.8h0a3,3,0,0,1,.36.3C347.17,407.51,348.72,419.66,346.47,421.22Z" transform="translate(-99.65 -29.19)"/><path class="cls-15" d="M278.65,116.42c2.14-1.15-.08,5.73,2.26,5.7.32,0,.84,13.28.8,13.63l-5.43,8.11c-1,7.9-4,11.36-.88,27.75.36,1.24-.41,1.39-.79,4,1,3.25-4,3.25-8.73.81-5.43-2.8-17.43-4.16-17.43-4.16C255.7,136.17,266.62,123.33,278.65,116.42Z" transform="translate(-99.65 -29.19)"/><path class="cls-16" d="M345,310.74a98,98,0,0,0,1.08,22.91c2.1,11.17,3.54,27,2.1,39.05-1.53,12.77-.76,32.2-.76,32.2-.62,2.48-3.47,3-5.44,3q-4.77,0-9.56.06c-1,0-2.94.43-3.51-.83,0,0-.55-25.28-4.56-44.15-3.68-17.31-11.72-36.59-13.42-57.46-1.53-18.72-5.25-41.84-5.41-41.43-.71,1.94-2.43,10.5-5.82,21.5-4.74,15.45-7.87,29-7.87,29s-1.5,15-.27,23.83a116.89,116.89,0,0,1,.54,32.86c-1.45,12.33-2.58,35.23-2.58,35.23s-.75.14-1.81.31c-3.32.54-10,1.59-10.17,1.64s-.4.13-.6.19l-.21.05a7.15,7.15,0,0,1-5.33-1.15s0-.15-.05-.42c-.32-2.94-.45-22.73-2.14-38.21-1.86-16.87-8.74-52.32-8.74-52.32s2.42-26.55,5.25-44.56c.62-3.95,1.59-8.94,2.75-14.38,1.48-6.95,3.25-14.61,5-21.67.87-3.58,1.75-7,2.57-10.1.08-.36.17-.7.26-1,1.08-4.09,2.05-7.58,2.78-10,0-.18.12-.36.17-.53a19,19,0,0,1,1.11-3s4.76,3.38,20.92,2.15C320.74,212,328.45,203,328.45,203s-.1-.26-.25-.71l.11-.07s1.46,1.72,3.54,4.43l.33.43c1.91,2.49,4.28,5.71,6.52,9.14a4.9,4.9,0,0,1,.31.48,69.51,69.51,0,0,1,5.34,9.5c4.7,10.49,6.39,34.16,4.39,47.58S345,310.74,345,310.74Z" transform="translate(-99.65 -29.19)"/><path class="cls-5" d="M291.8,314.62s-1.5,15-.27,23.83a116.89,116.89,0,0,1,.54,32.86c-1.45,12.33-2.58,35.23-2.58,35.23s-.75.14-1.81.31c.11-8.91.44-24.06,1.44-32.73,1.49-12.83-2.44-48.12-1.89-57s11.55-67.26,11.55-67.26l6.71,14.29c-.71,1.94-2.43,10.5-5.82,21.5C294.93,301.07,291.8,314.62,291.8,314.62Z" transform="translate(-99.65 -29.19)"/><path class="cls-17" d="M345,166.27c-.05.4-.11.79-.19,1.18a55.82,55.82,0,0,1-3.08,9.39,69,69,0,0,0-2.43,7.46,15.29,15.29,0,0,0-.1,1.88h0c0,1.62-.07,3.77-.18,4.23a.14.14,0,0,0,0,.06c-.1.25-.19.49-.27.74-2.24,6.66.21,12.51-.16,16.74-.17,1.89,2.06,5.41,3.69,9.22.27.62.51,1.25.74,1.88a12.31,12.31,0,0,1,.81,5.89c-.95.05-7.78,1.14-8.78,1.19-8.74.58-16.76,2.92-25.53,4.73-20.63,4.25-33.5-4.81-33.5-4.81,0-.5,0-1,.05-1.49s0-.73,0-1.1c.69-13.16,7.19-31,1.51-45.91-.73-1.93-1.44-3.46-2.09-4.78-3.25-6.57-5.09-7.63-1.32-23.54.23-1,.55-3.38.87-6a.71.71,0,0,0,0-.14c.47-4,.9-8.42.9-9.06a48.46,48.46,0,0,0-2.37-14.12c1.62-1.22,3.16-2.29,4.59-3.22a74.15,74.15,0,0,1,6.46-3.8c2-1,3.25-1.53,3.25-1.53l1.87-.85c5.93,7.44,16.65,8,21.89.1l2.26-6.17L323.94,106l2.82,1,7.1,2.46,6.05,2.09c-.09.59-1.83,6.53-2,7.23-1.12,7,2.28,12.86,2.64,19.73.09,1.65.22,3.29.39,4.93a45.09,45.09,0,0,0,.72,4.63c.62,3,1.47,5.72,2.38,9,.19.69.55,1.93.67,2.63A20.24,20.24,0,0,1,345,166.27Z" transform="translate(-99.65 -29.19)"/><path class="cls-18" d="M349.75,266.13c-9.25.58-28-1.81-37.25,0-21.87,4.25-44.13,2.21-44.13,2.21,0-.5,6.23-43,6.25-43.46.36-12.37,1.56-27.38,2.06-34.28.32-4.35-.48-11.73-1.22-17.82-.46-3.75-.89-7-1-8.79l.43-1.23a102.82,102.82,0,0,0,4.2-16.71c.4-3,.85-19.57-.92-29.33l0-.16v-.63c0-.44,2-1.8,2.4-2l3.49-1.61.59.58,0,0c1.7,7.13,4.75,20.24,5.43,25.15.94,6.89,29.39,8.56,30.73-1.92,1.14-8.81,4.45-24.55,5.95-29.25l.06-.2a1,1,0,0,1,1.08-.61l6.15,1.87a.69.69,0,0,1,.12.9,4.19,4.19,0,0,0-.31.5c-4.54,7.61-2.16,30-.46,36.32,1.46,5.37,5.07,18.38,8,22.15l.13.16c0,2,.08,3.78.11,5.46,0,1.14,0,2.24.05,3.34,0,2.8,0,5.56-.07,8.93,0,.94-.06,1.94-.09,3a17.49,17.49,0,0,0,.09,2.21h0c.05.56.13,1.16.22,1.78.8,5.6,2.88,13.2,2.58,16.53-.18,1.89-2.78,3.69-1.06,7.5q.33.74.63,1.47a12.32,12.32,0,0,1,1,6.3C344,224.61,350.81,266.08,349.75,266.13Z" transform="translate(-99.65 -29.19)"/><path class="cls-5" d="M344.76,159.68a20.24,20.24,0,0,1,.19,6.59,4.77,4.77,0,0,0-.19,1.18,55.82,55.82,0,0,1-3.08,9.39c0,2.8,0,5.56-.07,8.93,0,.94-.06,1.94-.09,3a17.49,17.49,0,0,0,.09,2.21,37.92,37.92,0,0,0-2.46-4.78h0c-1.06-1.74-2.06-3.07-2.46-3.11-4.33-.48-10.89-5.51-12.17-6.48.53.32,2.3,1,7.27.74,4.27-.23,7.86-5.19,9.6-9.45a11.5,11.5,0,0,0,1.13-5.12c-.39-2.83-3.66-14-3.4-19.91a14,14,0,0,0,2.59,5.17c.62,3,1.47,5.72,2.38,9C344.28,157.74,344.64,159,344.76,159.68Z" transform="translate(-99.65 -29.19)"/><path class="cls-5" d="M349.75,266.13c-9.25.58-28-1.81-37.25,0-21.87,4.25-44.13,2.21-44.13,2.21,0-.5,6.23-43,6.25-43.46.36-12.37,1.56-27.38,2.06-34.28.32-4.35-.48-11.73-1.22-17.82-3.25-6.57-5.09-7.63-1.32-23.54.23-1,.55-3.38.87-6-.19,2.18-1.05,12.4-.15,19.5a17.23,17.23,0,0,0,1.24,5.07c5.62,11.79,15.32,13.8,19.16,11.5-.49.51-8,7.12-13.07,7.48,0,0-.05,14,.83,16.57,4.15,12.27,36.27,18.18,46.93,18.9,6.48.43,10.7-1.58,13-3.22.4-.28.74-.56,1-.8a12.32,12.32,0,0,1,1,6.3C344,224.61,350.81,266.08,349.75,266.13Z" transform="translate(-99.65 -29.19)"/><path d="M232,333.66" transform="translate(-99.65 -29.19)"/><path class="cls-19" d="M379.75,152.13a49.64,49.64,0,0,0-6.94,2.75c-10.47,5.05-20.64,14.34-20.64,14.34a51.83,51.83,0,0,1-7.63-10.61,93.46,93.46,0,0,1-6-18.79c-1.63-9.57-4.68-20.22,1.13-28.47C339.63,111.35,362.55,122.23,379.75,152.13Z" transform="translate(-99.65 -29.19)"/><path class="cls-11" d="M418.12,370.21l6.4.35c.76-13.64-.53-25.1-3.94-35.05-4.25-12.38-11.93-22.29-21.64-27.9-19.28-11.14-40.51-2.82-57.21-59-3.55-9.79-11.1-20.24-15.43-25.08-25.16-28.09-43.1-9.17-53.06,3.07l4.16,3.1c10.52-11.54,29.47-28.29,50.09,5.74,3.16,5.22,6.54,9.85,8.11,15.14,17.7,59.58,42.17,52.42,60.19,62.83,8.36,4.84,15,13.49,18.75,24.37C417.66,346.85,418.83,357.47,418.12,370.21Z" transform="translate(-99.65 -29.19)"/><polygon class="cls-20" points="29.57 385.58 147.6 233.8 144.27 231.05 26.24 382.83 29.57 385.58"/><path class="cls-20" d="M408.93,363.73a2.28,2.28,0,0,1,1.6,1.28,3,3,0,0,1,.25,1.15c.05,3-4.27,5.48-9.66,5.61s-9.81-2.18-9.86-5.14a3.45,3.45,0,0,1,.83-2.25,2,2,0,0,1,1.29-.73C398.53,363,403.78,362.56,408.93,363.73Z" transform="translate(-99.65 -29.19)"/><path class="cls-11" d="M415.76,368.19s3.17-10,9-9.55c5.48.42,10.67,5.94,12.21,25s1.12,28.47-2.69,35-76.73,8.53-83.56,5.36-8.75-23,15.12-44.13S415.76,368.19,415.76,368.19Z" transform="translate(-99.65 -29.19)"/><path class="cls-18" d="M350.72,424c6.83,3.17,79.75,1.17,83.56-5.36,3.1-5.32,4-12.55,3.34-25.32-12.33,8.55-32.31,19-51.09,13.74-19.43-5.41-25.55-14.67-27.44-20.52C342.43,405,344.62,421.17,350.72,424Z" transform="translate(-99.65 -29.19)"/><path class="cls-21" d="M360.3,385.22c.49.66,1.11,1.44,1.49,1.89,9.76,11.74,54.43.46,57.71-4.06,2.74-3.78-.25-13.53-3.74-14.86-5.43-2.07-27.53-7.67-49.92,11.67A77,77,0,0,0,360.3,385.22Z" transform="translate(-99.65 -29.19)"/><path class="cls-21" d="M360.3,385.22c.49.66,1.11,1.44,1.49,1.89,9.76,11.74,54.43.46,57.71-4.06,2.74-3.78-.25-13.53-3.74-14.86-5.43-2.07-27.5-8.05-49.89,11.29A78.2,78.2,0,0,0,360.3,385.22Z" transform="translate(-99.65 -29.19)"/><path class="cls-22" d="M360.3,385.22c.49.66,1.11,1.44,1.49,1.89,9.76,11.74,54.43.46,57.71-4.06,2.74-3.78-.25-13.53-3.74-14.86-5.43-2.07-27.5-8.05-49.89,11.29A78.2,78.2,0,0,0,360.3,385.22Z" transform="translate(-99.65 -29.19)"/><path class="cls-23" d="M361.57,386.73c9.54,11.53,54.34.5,57.93-3.68-3.75,5-44.88,15.67-56.69,5.26a13.77,13.77,0,0,1-2.51-3.09C360.68,385.76,361.14,386.23,361.57,386.73Z" transform="translate(-99.65 -29.19)"/><path class="cls-24" d="M436.63,412.65a22.21,22.21,0,0,1-2.35,6c-3.81,6.53-76.73,8.53-83.56,5.36-2.37-1.09-4.15-4.21-4.46-8.7C354.76,418,419.22,417.32,436.63,412.65Z" transform="translate(-99.65 -29.19)"/><path class="cls-25" d="M389.15,411.13c-1,12.94,8.37,24.22,20.92,25.18s23.53-8.75,24.52-21.69-8.37-24.22-20.92-25.19S390.15,398.18,389.15,411.13Z" transform="translate(-99.65 -29.19)"/><ellipse class="cls-11" cx="411.87" cy="412.87" rx="19.8" ry="19.19" transform="translate(-131 762.7) rotate(-85.61)"/><ellipse class="cls-11" cx="411.87" cy="412.87" rx="19.8" ry="19.19" transform="translate(-131 762.7) rotate(-85.61)"/><path class="cls-20" d="M406.62,412.47a5.27,5.27,0,1,0,5.67-5A5.36,5.36,0,0,0,406.62,412.47Z" transform="translate(-99.65 -29.19)"/><polygon class="cls-25" points="8.85 382.69 30.21 374.77 40.09 360.64 48.61 364.14 37.66 377.51 38.19 385.4 8.85 382.69"/><polygon class="cls-25" points="47.19 393.8 47.03 395.8 39.3 395.21 38.92 393.82 38.69 395.16 19.75 393.7 19.72 392.69 19.3 393.67 15.43 393.37 15.31 392.36 15.01 393.34 8.96 392.88 9.04 391.72 8.51 392.84 4.84 392.56 4.5 391.18 4.19 392.51 1.97 392.34 2.12 390.33 47.19 393.8"/><path class="cls-26" d="M254.86,240.83l-23,32.6,5.77,4,45.73-55s-2.75-3.3-6-1l-19.16,23.31Z" transform="translate(-99.65 -29.19)"/><path class="cls-27" d="M240.41,258.84s.73,5.91,3.22,6.56c1.43.37.1-8.43,1.13-9.89s.67-2.55,0-2.66S240.41,258.84,240.41,258.84Z" transform="translate(-99.65 -29.19)"/><path class="cls-11" d="M100,411.31h50.11a0,0,0,0,1,0,0v.75a9.23,9.23,0,0,1-9.23,9.23H109.19a9.23,9.23,0,0,1-9.23-9.23v-.75a0,0,0,0,1,0,0Z" transform="translate(118.12 811.77) rotate(-175.61)"/><path class="cls-28" d="M298.37,212.12c1.32-2.24,3-5.65,5.35-7a26,26,0,0,1,6.84-2.33c2.08-1.53,5.86-2,8.08-2.33a34.1,34.1,0,0,1,3.66-.48c6.95-5.3,16.88-12.58,24.73-18.3,1.69-1.23,5.8-5,7.84-6.77.92-2.91-.75-5-1.49-6.81,0,0,9.17-8.13,18.07-12.94a32.85,32.85,0,0,1,5.63-2.16,52.52,52.52,0,0,1,3.37,7.74c1.5,4.29,4.67,12,2.55,15.47-7.36,12.07-18.45,17.06-32.85,22.49-4.75,1.79-10.69,4.46-19.34,7.84-.57.23-2.78,1.39-3.35,1.62-3.33,1.33-5,5-8.87,5.5a6.43,6.43,0,0,1-2.16-.12,9.89,9.89,0,0,0-3,3.9,6.54,6.54,0,0,1-.87,1.73.71.71,0,0,1-1.24-.39,8.83,8.83,0,0,1,2.42-6.21l0,0a14.94,14.94,0,0,0-3.4,1.79,11.63,11.63,0,0,0-2.31,2.23,7.36,7.36,0,0,1-1.49,1.71.83.83,0,0,1-1.29-.79,10.69,10.69,0,0,1,5.67-7,8.36,8.36,0,0,1-.58-.62,16.68,16.68,0,0,0-2.78,1.27c-2.14,1.31-2.88,3.15-4.19,5.13a.91.91,0,0,1-1.63-.28,7.68,7.68,0,0,1,3.19-7,21.6,21.6,0,0,1,3.94-2.26l0-.41a9.38,9.38,0,0,0-3.82,1.81c-1.84,1.59-3.05,4.79-5.81,4.89C298.62,213.18,298.06,212.64,298.37,212.12Z" transform="translate(-99.65 -29.19)"/><path d="M488.39,54.68s-9.69,9.76-7,21.52c4.31,18.94-8,19.11-8,19.11s-14,17.61-13.12,18.06S507,110.84,507,110.84s25.55,3.24,25,1.58-11-19.78-11.49-23-2.42-9.61-1.8-12-5.95-16.62-5.95-16.62Z" transform="translate(-99.65 -29.19)"/><path class="cls-29" d="M516.8,107.74c-1.44,5.46-7.19,13.35-13.43,14.5s-8.55-9.32-9.89-9.61-9.12-7.23-6.71-11.73c.77-1.42,2.48-2.14,3.54-3.84.27-.43.52-.88.77-1.36,4.11-7.9,5.45-21.4,5.45-21.4,1.88.8,8.94,5.37,12.31,7.58l1.82,1.19c0,.3-.27.4-.52.55a.51.51,0,0,0-.3.43,35.3,35.3,0,0,0,.52,6.25c1,5.61,3.09,8.35,3.39,9.56,1.42,5.79,1.61,1.06,1.61,1.06S518.24,102.26,516.8,107.74Z" transform="translate(-99.65 -29.19)"/><path class="cls-5" d="M510.36,90.3c-2.87,1.79-8.49,4.1-19.28,5.4,4.11-7.9,5.45-21.4,5.45-21.4,1.88.8,8.94,5.37,12.31,7.58l1.3,1.74a.51.51,0,0,0-.3.43A35.3,35.3,0,0,0,510.36,90.3Z" transform="translate(-99.65 -29.19)"/><path class="cls-30" d="M491,74.48s.42,8.92,7.87,13.85,16.22-7.76,16.75-11A7.56,7.56,0,0,0,518,75.91c.9-1,.95-5.62-.06-6a4.36,4.36,0,0,0-2.34,0l-1.66-6.28-13.77-5-5.94,3.46-1.88,3.74-.4.08a4.17,4.17,0,0,0-3.2,3.06c-.35,1.42-.56,3.09,0,4C489.92,74.94,491,74.48,491,74.48Z" transform="translate(-99.65 -29.19)"/><path d="M490.23,67.31s1.92-.71,2.15,1.74.29,3,.94,2.16a23.47,23.47,0,0,0,4.16-8.39c.17-.54,8.49,6.16,16.16,3.12a15.06,15.06,0,0,0,5.7-3.66c1.31-1.31,3.88-4.37.83-8.85s-10.33-4.07-15.12-7.15c-2.1-1.35-6.82-3.13-10-1.82-1.56.64-5.38,3.55-5.11,7.31,0,0-5.29,5.41-6.45,10-.66,2.61,1.64,6.62,2.89,8.5a24.15,24.15,0,0,0,3.05,3.6s-1.52-3.3-.69-4.93S490.23,67.31,490.23,67.31Z" transform="translate(-99.65 -29.19)"/><path d="M514,64.65s1.65,8.48,2.37,7.41c1.52-2.25,2.76-.93,2.28,1.28a6.71,6.71,0,0,1-1.24,3,6.48,6.48,0,0,0-3,3.61c-.77,2.49-.78,1.27-.78,1.27a45.64,45.64,0,0,1,3.73-2.84c1.53-1,2.71-3.5,3.43-4.89s1.76-6.68,1.34-8.3-2.67-5.15-2.25-7.29c.06-.33-.28-.7-1.46,0S514,64.65,514,64.65Z" transform="translate(-99.65 -29.19)"/><path class="cls-7" d="M507.65,81.94a41.47,41.47,0,0,1-4.36.15c-2.27-.07-3.89-.19-3.89-.19s1.63,3,4.27,3.16S507.65,81.94,507.65,81.94Z" transform="translate(-99.65 -29.19)"/><path d="M500.63,69.54c.12-.43-.3-1.29-2.35-1.41a7.59,7.59,0,0,0-4,1.11,12.4,12.4,0,0,1,4.19-.12Z" transform="translate(-99.65 -29.19)"/><path d="M506.94,69.54c-.12-.43.3-1.29,2.35-1.41a7.57,7.57,0,0,1,4,1.11,12.36,12.36,0,0,0-4.18-.12Z" transform="translate(-99.65 -29.19)"/><path class="cls-9" d="M509.09,72.93c.05.92.42,1.65.84,1.63s.71-.79.66-1.71-.42-1.66-.83-1.64S509.05,72,509.09,72.93Z" transform="translate(-99.65 -29.19)"/><path class="cls-9" d="M497.48,72.49c0,.93.26,1.69.68,1.71s.78-.71.83-1.64-.26-1.69-.68-1.7S497.53,71.57,497.48,72.49Z" transform="translate(-99.65 -29.19)"/><path class="cls-8" d="M503.41,73.52s2.09,5,1.56,5.26a6.85,6.85,0,0,1-2.25,0Z" transform="translate(-99.65 -29.19)"/><path class="cls-11" d="M546.42,429.2c-2.3,2.12-18.66,4.48-21.78-.32s1.46-9.08,2-10.43,2.2-7.73,2.2-7.73H529l11.54-.71s.61,6.1,3.68,8.76a11,11,0,0,1,2.34,2.83C548.15,424.47,548.1,427.65,546.42,429.2Z" transform="translate(-99.65 -29.19)"/><path class="cls-31" d="M546.42,429.2c-2.3,2.12-18.66,4.48-21.78-.32s1.46-9.08,2-10.43,2.2-7.73,2.2-7.73l.93-3.17c1.4,3-1,9.89-.69,11.68.46,2.52,7.92-3,17.48,2.36C548.15,424.47,548.1,427.65,546.42,429.2Z" transform="translate(-99.65 -29.19)"/><path class="cls-11" d="M495.84,420.16c-1.31.95-4.46,1.08-7.09,1-2.25,0-4.11-.25-4.11-.25q-2.65.87-5,1.42c-.64.17-1.25.32-1.84.43l-.08,0a38.57,38.57,0,0,1-4,.64c-6.58.71-9.56-.93-9.24-2.78.47-2.64,3.59-5.88,7.79-7.75,4.38-2,7.47-8.13,7.47-8.13l1.93-.07,11.58-.42,2.11-.23h0l.32,0s0,.13,0,.34C496.18,406.52,498,418.55,495.84,420.16Z" transform="translate(-99.65 -29.19)"/><path class="cls-31" d="M473.79,423.44c-6.58.71-9.56-.93-9.24-2.78.47-2.64,3.59-5.88,7.79-7.75,4.38-2,7.47-8.13,7.47-8.13l1.93-.07c-1.56,3.1-5,8.68-10.79,11.82C464.37,420.08,468.66,423.37,473.79,423.44Z" transform="translate(-99.65 -29.19)"/><path class="cls-14" d="M495.84,420.16c-1.31.95-4.46,1.08-7.09,1,5.14-.91,6.25-2.08,6.45-3.54.24-1.84-.27-9.11-.55-12.47a7,7,0,0,0-1.48-2.84l2.26,1.73h0a4.07,4.07,0,0,1,.36.3C496.18,406.52,498,418.55,495.84,420.16Z" transform="translate(-99.65 -29.19)"/><path class="cls-32" d="M520.25,209.34c-12.16,28.06-23.66,100.45-22,108.31C504,344.12,496,404.42,496,404.42l-16.26.55a.23.23,0,0,0,0-.07c-.54-2.33-6.41-62.84-14.57-117.1-.54-3.59-1.05-7.16-1.53-10.67-2.34-17.13-.68-48-.29-61.42,0-.26,0-.51,0-.76.14-5.12.25-8.3.25-8.3l13.67.65,8.17.39Z" transform="translate(-99.65 -29.19)"/><path class="cls-5" d="M479.28,328.46c6.35,39,.51,66,2.34,76l-1.93.55a.23.23,0,0,0,0-.07c-.54-2.33-6.41-62.84-14.57-117.1-.64-5.83-1.15-11.54-1.49-17-1.08-17.25-.67-41.91-.33-55,0-.26,0-.51,0-.76a45.57,45.57,0,0,1,13.92-7.65,22.58,22.58,0,0,1,5.93-1.21l2.24,1.6L501.17,219s-18.54,5.6-27.82,8.65C473.35,227.61,471.8,282.57,479.28,328.46Z" transform="translate(-99.65 -29.19)"/><path class="cls-33" d="M539.05,302.27c5.52,31.55,2.59,109.91,2.59,109.91l-13.57.86-1.05.06c-.1-.56-.22-1.24-.35-2-.09-.5-.19-1-.28-1.63v0c-1.12-6.42-3-17.45-5.38-30.21-.11-.57-.21-1.16-.33-1.74-3.92-21.14-9-46.56-13.76-63.62-12.68-42-19.76-96.77-20.2-100.15,0-.11,0-.16,0-.16s9.48-2.08,20.35-3.5c13.85-1.8,29.73-2.45,31.58,3.5C546.74,239.77,536.28,286.4,539.05,302.27Z" transform="translate(-99.65 -29.19)"/><path class="cls-5" d="M528.07,413l-1.05.06c-.1-.56-.22-1.24-.35-2-.09-.5-.18-1.05-.28-1.63v0C525.3,403,523.44,392,521,379.24c-.11-.57-.21-1.16-.33-1.74-3.92-21.14-9-46.56-13.76-63.62-12.68-42-19.76-96.77-20.2-100.15,0-.11,0-.16,0-.16s9.48-2.08,20.35-3.5l6.17,7.5s-13.58,8.38-14,11.43,16.48,90,21,115.94C524.1,367.07,527.08,403.77,528.07,413Z" transform="translate(-99.65 -29.19)"/><path class="cls-34" d="M471.58,96.76s-27.18,13-44.8,36.24c5.5,11,22.24,29.93,22.24,29.93s6.57-3.36,20.24-16.32C498.57,118.84,471.58,96.76,471.58,96.76Z" transform="translate(-99.65 -29.19)"/><path class="cls-35" d="M541.58,213.05c-.25,3-.82,4.84-1.7,5.32-3.24,1.72-32.06-2.69-41.78,1.53s-29,1.92-33.14-1.34a6.23,6.23,0,0,1-2.35-3.62c-.5-2.14-.15-5,.71-8.94.48-2.26,1.13-4.89,1.87-8,3.52-14.69,3.49-21.85.75-32.72-1.08-4.29-2.59-9.15-4.46-15.28-.13-.43-.26-.87-.4-1.32a7.08,7.08,0,0,1-.18-.73c0-.26-.1-.52-.13-.79h0a7.51,7.51,0,0,1-.07-.84c0-.25,0-.49,0-.75,0-4.7,2.29-10.62,3.56-14.5,1-3.09,2.67-7.49,3.38-10.52l.06-.29C470,110,471,103.07,471,96.76a28.21,28.21,0,0,1,3.38-1,65,65,0,0,1,9.55-1.32c3.89-.28,6.88-.26,6.88-.26.06.52.15,1,.25,1.6a10.34,10.34,0,0,0,19,3.49c1.78-2.92,2.68-5,3.24-5s4.17,1,8.26,2.08c2.37.64,4.94,1.34,7.31,2l8.34,2.3s1.43,15,1.19,32.57c-.15,10.38-.88,21.65-2.83,31.2-.33,1.61-.7,3.17-1.1,4.67a39.61,39.61,0,0,0-1,15.34h0c1.27,10.18,5.89,18.44,7.56,24.33a15.61,15.61,0,0,1,.56,2.84A7.33,7.33,0,0,1,541.58,213.05Z" transform="translate(-99.65 -29.19)"/><path class="cls-18" d="M541.6,218.2c-1.07,0,0,43.15-1.14,43.16-9.81.24-29.52-3-39.42-1.49-23.31,3.58-46.78.54-46.78.54,0-.52,8.3-44.81,8.34-45.33,0-.05,0-.09,0-.14.2-2.89.44-5.91.71-8.94.94-10.54,2.2-21.2,2.82-26.79a88.31,88.31,0,0,0-.2-13.91c-.12-1.65-.25-3.27-.38-4.82-.34-4-.66-7.39-.74-9.26,0,0,.19-.47.5-1.28a.56.56,0,0,0,0-.12,106.16,106.16,0,0,0,5.07-17.23c.54-3.13,4.44-19.48,4.26-30.82,0,0-.17-4.13-.33-6a1.32,1.32,0,0,1,.66-1.24c.73-.26,2.48-.3,2.89-.48l5-.37c.86,0,.95.5,1,.77,1.17,8-2,25.25-1.5,30.26.72,7.26,30.76,10.16,32.59-.78a249.82,249.82,0,0,1,5.94-25.59c.35-1.19.37-1.26.63-2l.07-.21a1,1,0,0,1,1.17-.59l6.3,1.82a.7.7,0,0,1,.09.94,17.73,17.73,0,0,0-1.05,2.07c-3.82,9.25-1.63,27.87-.2,34.05,1.33,5.69,4.63,19.48,7.57,23.55l.13.17c0,2.1-.07,4-.1,5.73,0,.19,0,.39,0,.58,0,1,0,2-.07,2.93-.07,2.94-.2,5.83-.43,9.36-.07,1-.14,2-.21,3.14a17.89,17.89,0,0,0,0,2.32h0c0,.59.09,1.22.17,1.87.62,5.91,3.37,11.64,4.36,16.85.26,1.38,2.2,4.77,2.66,9.9A25,25,0,0,1,541.6,218.2Z" transform="translate(-99.65 -29.19)"/><path class="cls-5" d="M534.44,169.13a39.61,39.61,0,0,0-1,15.34c-1.61-2.69-.58-15.49-2.75-16.47s-12.16-5.79-12.16-5.79c8.46,1.78,17.51-5.71,16-13.9s-2-23.25-2-23.25,3.17,4.5,5.84,8.2C538.2,145.39,537.23,158.72,534.44,169.13Z" transform="translate(-99.65 -29.19)"/><path class="cls-5" d="M541.6,218.2c-1.07,0,0,43.15-1.14,43.16-9.81.24-29.52-3-39.42-1.49-23.31,3.58-46.78.54-46.78.54,0-.52,8.3-44.81,8.34-45.33,0-.05,0-.09,0-.14-.5-2.14-.15-5,.71-8.94.94-10.54,2.2-21.2,2.82-26.79a88.31,88.31,0,0,0-.2-13.91c-1.08-4.29-2.59-9.15-4.46-15.28-.13-.43-.26-.87-.4-1.32a7.08,7.08,0,0,1-.18-.73c0-.26-.1-.52-.13-.79h0a7.51,7.51,0,0,1-.07-.84c0-.25,0-.49,0-.75,0-4.7,2.29-10.62,3.56-14.5,1-3.09,2.67-7.49,3.38-10.52l.06-.29,0-.09c-2.65,12.06-4.72,21.3-2.35,29.64a26.36,26.36,0,0,0,5.27,9.75s8.69,8.34,18.39,3.38c-.56.38-9.43,6.45-13.19,6.43l-3.87,0s4.37,15.49,4.71,20.3S523,215.41,532.4,215.14c5.44-.16,7.21-.28,9.16-3.49.15-.25.3-.52.46-.81A25,25,0,0,1,541.6,218.2Z" transform="translate(-99.65 -29.19)"/><path class="cls-36" d="M422.77,140.38s4.11-.9,6.54,0,8.55,9,16.81,19.19c-4.29,3.36-13.16,8.36-23.47,11.39-5.34-3.08-8.06-19.57-4.92-21.57S422.77,140.38,422.77,140.38Z" transform="translate(-99.65 -29.19)"/><path class="cls-37" d="M576.59,412.49c0,.31-6,1.21-8,4.24s-.9,5.74,1.82,5.89,6.35,1.06,6.19,2.11,1.82-1.2,2.73-.9-.76,3.93,1.66,4.84,1.81,3,8.16,3.76,9.37-3.76,11.57-4.83,8.23-1.51,12-.29,4.38.9,6.8-.61,5.59-.14,7.56-1.82,3.17-4.82,5.74-5,6.65.45,8-1.66.91-3.78,3.33-3.63,4.53.45,5.29-1.36-2.42-4.84,0-5.29,4.92-4.39.12-5.59a9.69,9.69,0,0,0-8.28,1.81Z" transform="translate(-99.65 -29.19)"/><polygon class="cls-18" points="496.74 387.54 543 373.18 528.03 367.89 476.94 381.49 496.74 387.54"/><polygon class="cls-11" points="496.74 392.22 543 377.25 543 373.18 496.74 387.54 496.74 392.22"/><polygon class="cls-38" points="496.74 392.22 476.94 386.67 476.94 381.49 496.74 387.54 496.74 392.22"/><path class="cls-37" d="M594.11,386.82a1.81,1.81,0,0,1-1.41-.67L428.34,95.67a1.82,1.82,0,0,1,2.83-2.28L595.52,383.87a1.81,1.81,0,0,1-.27,2.55A1.78,1.78,0,0,1,594.11,386.82Z" transform="translate(-99.65 -29.19)"/><path class="cls-11" d="M590.79,385.6c.6-.3,5.76-3.33,5.76-3.33l13.91,23-8.17,1.93Z" transform="translate(-99.65 -29.19)"/><path class="cls-39" d="M452.09,111.48s12.1,1,11.22,2.29-8.79.3-9.53,1,7.66,2.7,8.21,3.25,4.4,4,2.79,5.09c-.92.62-4.19-3.17-4.19-3.17s-5.26-1.44-5.26-.65,10.42,4.85,8.94,5.89-9.43-3.1-9.43-2.51,7,3,6.55,4.58-6.49-2.42-8-.89S446,135,441.89,134.3s-5.48,26.64-9.2,32c-6.07,8.76-15.42,7.27-18.18,5.21-11.91-8.92-.31-25.5,11.8-39.67A83.35,83.35,0,0,1,452.09,111.48Z" transform="translate(-99.65 -29.19)"/><path class="cls-40" d="M570.4,142.56a22.29,22.29,0,0,0-4.68,2.07c-10.91,5.26-22,14.94-22,14.94s-3.84-6-7.46-11c-1-1.45-1.25-4.44-1.66-6.15a103.76,103.76,0,0,1-3-20.21,52,52,0,0,1,.8-11.62c.61-3.17,1.39-7.9,4.31-9.85C536.76,100.69,552.63,108.74,570.4,142.56Z" transform="translate(-99.65 -29.19)"/><path class="cls-41" d="M489.66,204.09c1.25-2.18,2.81-5.51,5.07-6.78a23.9,23.9,0,0,1,6.46-2.28c2-1.5,5.55-1.92,7.65-2.28a33.18,33.18,0,0,1,3.46-.46c6.58-5.18,17.88-14.25,26.06-20.2a39.69,39.69,0,0,0,7.64-7.38c1-3,0-5.14-.51-6.62,0,0,9.48-8.28,18.75-13.29,2-1.07,2.18-.7,4.27-1.42,1.38,2.94,2,5,3.37,8.61,1.46,4,4,13,1.78,16.63-5.94,9.51-19.46,16.8-34.45,22.46-5,1.87-12.61,5.38-18.27,7.48-.54.21-3.22,1.49-3.76,1.72-3.14,1.3-4.75,4.84-8.39,5.36a6,6,0,0,1-2-.11,9.5,9.5,0,0,0-1.52,1.52,10.12,10.12,0,0,0-1.36,2.28,6,6,0,0,1-.82,1.69.66.66,0,0,1-1.17-.37,8.73,8.73,0,0,1,2.29-6.07l0,0a13.91,13.91,0,0,0-3.21,1.75,10.77,10.77,0,0,0-2.19,2.18,7.26,7.26,0,0,1-1.41,1.66.78.78,0,0,1-1.22-.77,10.35,10.35,0,0,1,5.36-6.79,7.76,7.76,0,0,1-.55-.61,17.56,17.56,0,0,0-2.63,1.24c-2,1.28-2.73,3.08-4,5a.84.84,0,0,1-1.53-.27,7.59,7.59,0,0,1,3-6.79,20.31,20.31,0,0,1,3.72-2.21c0-.13,0-.26,0-.4a8.66,8.66,0,0,0-3.62,1.78c-1.74,1.55-2.89,4.67-5.5,4.76C489.89,205.12,489.37,204.6,489.66,204.09Z" transform="translate(-99.65 -29.19)"/></g></g></svg>